<svg width="64" height="64" viewBox="0 0 64 64" fill="none" xmlns="http://www.w3.org/2000/svg">
<rect width="64" height="64" fill="white"/>
<path d="M11.4805 11.6602V12.4922H8.05273V11.6602H11.4805ZM9.21289 10.1191H10.2969V16.4297C10.2969 16.6445 10.3301 16.8066 10.3965 16.916C10.4629 17.0254 10.5488 17.0977 10.6543 17.1328C10.7598 17.168 10.873 17.1855 10.9941 17.1855C11.084 17.1855 11.1777 17.1777 11.2754 17.1621C11.377 17.1426 11.4531 17.127 11.5039 17.1152L11.5098 18C11.4238 18.0273 11.3105 18.0527 11.1699 18.0762C11.0332 18.1035 10.8672 18.1172 10.6719 18.1172C10.4062 18.1172 10.1621 18.0645 9.93945 17.959C9.7168 17.8535 9.53906 17.6777 9.40625 17.4316C9.27734 17.1816 9.21289 16.8457 9.21289 16.4238V10.1191ZM15.3828 18.1172C14.9414 18.1172 14.541 18.043 14.1816 17.8945C13.8262 17.7422 13.5195 17.5293 13.2617 17.2559C13.0078 16.9824 12.8125 16.6582 12.6758 16.2832C12.5391 15.9082 12.4707 15.498 12.4707 15.0527V14.8066C12.4707 14.291 12.5469 13.832 12.6992 13.4297C12.8516 13.0234 13.0586 12.6797 13.3203 12.3984C13.582 12.1172 13.8789 11.9043 14.2109 11.7598C14.543 11.6152 14.8867 11.543 15.2422 11.543C15.6953 11.543 16.0859 11.6211 16.4141 11.7773C16.7461 11.9336 17.0176 12.1523 17.2285 12.4336C17.4395 12.7109 17.5957 13.0391 17.6973 13.418C17.7988 13.793 17.8496 14.2031 17.8496 14.6484V15.1348H13.1152V14.25H16.7656V14.168C16.75 13.8867 16.6914 13.6133 16.5898 13.3477C16.4922 13.082 16.3359 12.8633 16.1211 12.6914C15.9062 12.5195 15.6133 12.4336 15.2422 12.4336C14.9961 12.4336 14.7695 12.4863 14.5625 12.5918C14.3555 12.6934 14.1777 12.8457 14.0293 13.0488C13.8809 13.252 13.7656 13.5 13.6836 13.793C13.6016 14.0859 13.5605 14.4238 13.5605 14.8066V15.0527C13.5605 15.3535 13.6016 15.6367 13.6836 15.9023C13.7695 16.1641 13.8926 16.3945 14.0527 16.5938C14.2168 16.793 14.4141 16.9492 14.6445 17.0625C14.8789 17.1758 15.1445 17.2324 15.4414 17.2324C15.8242 17.2324 16.1484 17.1543 16.4141 16.998C16.6797 16.8418 16.9121 16.6328 17.1113 16.3711L17.7676 16.8926C17.6309 17.0996 17.457 17.2969 17.2461 17.4844C17.0352 17.6719 16.7754 17.8242 16.4668 17.9414C16.1621 18.0586 15.8008 18.1172 15.3828 18.1172ZM19.8477 11.6602L21.2363 13.9688L22.6426 11.6602H23.9141L21.8398 14.7891L23.9785 18H22.7246L21.2598 15.6211L19.7949 18H18.5352L20.668 14.7891L18.5996 11.6602H19.8477ZM27.7227 11.6602V12.4922H24.2949V11.6602H27.7227ZM25.4551 10.1191H26.5391V16.4297C26.5391 16.6445 26.5723 16.8066 26.6387 16.916C26.7051 17.0254 26.791 17.0977 26.8965 17.1328C27.002 17.168 27.1152 17.1855 27.2363 17.1855C27.3262 17.1855 27.4199 17.1777 27.5176 17.1621C27.6191 17.1426 27.6953 17.127 27.7461 17.1152L27.752 18C27.666 18.0273 27.5527 18.0527 27.4121 18.0762C27.2754 18.1035 27.1094 18.1172 26.9141 18.1172C26.6484 18.1172 26.4043 18.0645 26.1816 17.959C25.959 17.8535 25.7812 17.6777 25.6484 17.4316C25.5195 17.1816 25.4551 16.8457 25.4551 16.4238V10.1191Z" fill="black"/>
<rect x="16" y="46" width="33" height="12" fill="#10D323"/>
<path d="M21.3633 55.2266C21.6211 55.2266 21.8594 55.1738 22.0781 55.0684C22.2969 54.9629 22.4766 54.8184 22.6172 54.6348C22.7578 54.4473 22.8379 54.2344 22.8574 53.9961H23.8887C23.8691 54.3711 23.7422 54.7207 23.5078 55.0449C23.2773 55.3652 22.9746 55.625 22.5996 55.8242C22.2246 56.0195 21.8125 56.1172 21.3633 56.1172C20.8867 56.1172 20.4707 56.0332 20.1152 55.8652C19.7637 55.6973 19.4707 55.4668 19.2363 55.1738C19.0059 54.8809 18.832 54.5449 18.7148 54.166C18.6016 53.7832 18.5449 53.3789 18.5449 52.9531V52.707C18.5449 52.2812 18.6016 51.8789 18.7148 51.5C18.832 51.1172 19.0059 50.7793 19.2363 50.4863C19.4707 50.1934 19.7637 49.9629 20.1152 49.7949C20.4707 49.627 20.8867 49.543 21.3633 49.543C21.8594 49.543 22.293 49.6445 22.6641 49.8477C23.0352 50.0469 23.3262 50.3203 23.5371 50.668C23.752 51.0117 23.8691 51.4023 23.8887 51.8398H22.8574C22.8379 51.5781 22.7637 51.3418 22.6348 51.1309C22.5098 50.9199 22.3379 50.752 22.1191 50.627C21.9043 50.498 21.6523 50.4336 21.3633 50.4336C21.0312 50.4336 20.752 50.5 20.5254 50.6328C20.3027 50.7617 20.125 50.9375 19.9922 51.1602C19.8633 51.3789 19.7695 51.623 19.7109 51.8926C19.6562 52.1582 19.6289 52.4297 19.6289 52.707V52.9531C19.6289 53.2305 19.6562 53.5039 19.7109 53.7734C19.7656 54.043 19.8574 54.2871 19.9863 54.5059C20.1191 54.7246 20.2969 54.9004 20.5195 55.0332C20.7461 55.1621 21.0273 55.2266 21.3633 55.2266ZM26.2852 47V56H25.1953V47H26.2852ZM31.7637 54.916V51.6523C31.7637 51.4023 31.7129 51.1855 31.6113 51.002C31.5137 50.8145 31.3652 50.6699 31.166 50.5684C30.9668 50.4668 30.7207 50.416 30.4277 50.416C30.1543 50.416 29.9141 50.4629 29.707 50.5566C29.5039 50.6504 29.3438 50.7734 29.2266 50.9258C29.1133 51.0781 29.0566 51.2422 29.0566 51.418H27.9727C27.9727 51.1914 28.0312 50.9668 28.1484 50.7441C28.2656 50.5215 28.4336 50.3203 28.6523 50.1406C28.875 49.957 29.1406 49.8125 29.4492 49.707C29.7617 49.5977 30.1094 49.543 30.4922 49.543C30.9531 49.543 31.3594 49.6211 31.7109 49.7773C32.0664 49.9336 32.3438 50.1699 32.543 50.4863C32.7461 50.7988 32.8477 51.1914 32.8477 51.6641V54.6172C32.8477 54.8281 32.8652 55.0527 32.9004 55.291C32.9395 55.5293 32.9961 55.7344 33.0703 55.9062V56H31.9395C31.8848 55.875 31.8418 55.709 31.8105 55.502C31.7793 55.291 31.7637 55.0957 31.7637 54.916ZM31.9512 52.1562L31.9629 52.918H30.8672C30.5586 52.918 30.2832 52.9434 30.041 52.9941C29.7988 53.041 29.5957 53.1133 29.4316 53.2109C29.2676 53.3086 29.1426 53.4316 29.0566 53.5801C28.9707 53.7246 28.9277 53.8945 28.9277 54.0898C28.9277 54.2891 28.9727 54.4707 29.0625 54.6348C29.1523 54.7988 29.2871 54.9297 29.4668 55.0273C29.6504 55.1211 29.875 55.168 30.1406 55.168C30.4727 55.168 30.7656 55.0977 31.0195 54.957C31.2734 54.8164 31.4746 54.6445 31.623 54.4414C31.7754 54.2383 31.8574 54.041 31.8691 53.8496L32.332 54.3711C32.3047 54.5352 32.2305 54.7168 32.1094 54.916C31.9883 55.1152 31.8262 55.3066 31.623 55.4902C31.4238 55.6699 31.1855 55.8203 30.9082 55.9414C30.6348 56.0586 30.3262 56.1172 29.9824 56.1172C29.5527 56.1172 29.1758 56.0332 28.8516 55.8652C28.5312 55.6973 28.2812 55.4727 28.1016 55.1914C27.9258 54.9062 27.8379 54.5879 27.8379 54.2363C27.8379 53.8965 27.9043 53.5977 28.0371 53.3398C28.1699 53.0781 28.3613 52.8613 28.6113 52.6895C28.8613 52.5137 29.1621 52.3809 29.5137 52.291C29.8652 52.2012 30.2578 52.1562 30.6914 52.1562H31.9512ZM35.7305 49.6602V56H34.6406V49.6602H35.7305ZM34.5586 47.9785C34.5586 47.8027 34.6113 47.6543 34.7168 47.5332C34.8262 47.4121 34.9863 47.3516 35.1973 47.3516C35.4043 47.3516 35.5625 47.4121 35.6719 47.5332C35.7852 47.6543 35.8418 47.8027 35.8418 47.9785C35.8418 48.1465 35.7852 48.291 35.6719 48.4121C35.5625 48.5293 35.4043 48.5879 35.1973 48.5879C34.9863 48.5879 34.8262 48.5293 34.7168 48.4121C34.6113 48.291 34.5586 48.1465 34.5586 47.9785ZM38.5488 50.9199V56H37.459V49.6602H38.4902L38.5488 50.9199ZM38.3262 52.5898L37.8223 52.5723C37.8262 52.1387 37.8828 51.7383 37.9922 51.3711C38.1016 51 38.2637 50.6777 38.4785 50.4043C38.6934 50.1309 38.9609 49.9199 39.2812 49.7715C39.6016 49.6191 39.9727 49.543 40.3945 49.543C40.6914 49.543 40.9648 49.5859 41.2148 49.6719C41.4648 49.7539 41.6816 49.8848 41.8652 50.0645C42.0488 50.2441 42.1914 50.4746 42.293 50.7559C42.3945 51.0371 42.4453 51.377 42.4453 51.7754V56H41.3613V51.8281C41.3613 51.4961 41.3047 51.2305 41.1914 51.0312C41.082 50.832 40.9258 50.6875 40.7227 50.5977C40.5195 50.5039 40.2812 50.457 40.0078 50.457C39.6875 50.457 39.4199 50.5137 39.2051 50.627C38.9902 50.7402 38.8184 50.8965 38.6895 51.0957C38.5605 51.2949 38.4668 51.5234 38.4082 51.7812C38.3535 52.0352 38.3262 52.3047 38.3262 52.5898ZM42.4336 51.9922L41.707 52.2148C41.7109 51.8672 41.7676 51.5332 41.877 51.2129C41.9902 50.8926 42.1523 50.6074 42.3633 50.3574C42.5781 50.1074 42.8418 49.9102 43.1543 49.7656C43.4668 49.6172 43.8242 49.543 44.2266 49.543C44.5664 49.543 44.8672 49.5879 45.1289 49.6777C45.3945 49.7676 45.6172 49.9062 45.7969 50.0938C45.9805 50.2773 46.1191 50.5137 46.2129 50.8027C46.3066 51.0918 46.3535 51.4355 46.3535 51.834V56H45.2637V51.8223C45.2637 51.4668 45.207 51.1914 45.0938 50.9961C44.9844 50.7969 44.8281 50.6582 44.625 50.5801C44.4258 50.498 44.1875 50.457 43.9102 50.457C43.6719 50.457 43.4609 50.498 43.2773 50.5801C43.0938 50.6621 42.9395 50.7754 42.8145 50.9199C42.6895 51.0605 42.5938 51.2227 42.5273 51.4062C42.4648 51.5898 42.4336 51.7852 42.4336 51.9922Z" fill="#EEEEEE"/>
</svg>
